<svg width="37" height="37" viewBox="0 0 37 37" fill="none" xmlns="http://www.w3.org/2000/svg">
<path d="M28.7069 5.35938C29.4849 5.35938 30.231 5.66842 30.7811 6.21853C31.3312 6.76864 31.6402 7.51474 31.6402 8.29271V28.826C31.6402 29.604 31.3312 30.3501 30.7811 30.9002C30.231 31.4503 29.4849 31.7594 28.7069 31.7594H8.17357C7.3956 31.7594 6.64949 31.4503 6.09939 30.9002C5.54928 30.3501 5.24023 29.604 5.24023 28.826V8.29271C5.24023 7.51474 5.54928 6.76864 6.09939 6.21853C6.64949 5.66842 7.3956 5.35938 8.17357 5.35938H28.7069ZM27.9736 28.0927V20.3194C27.9736 19.0513 27.4698 17.8351 26.5731 16.9385C25.6765 16.0418 24.4603 15.538 23.1922 15.538C21.9456 15.538 20.4936 16.3007 19.7896 17.4447V15.8167H15.6976V28.0927H19.7896V20.862C19.7896 19.7327 20.6989 18.8087 21.8282 18.8087C22.3728 18.8087 22.8951 19.025 23.2802 19.4101C23.6652 19.7952 23.8816 20.3175 23.8816 20.862V28.0927H27.9736ZM10.9309 13.514C11.5844 13.514 12.2111 13.2544 12.6732 12.7924C13.1353 12.3303 13.3949 11.7035 13.3949 11.05C13.3949 9.68604 12.2949 8.57138 10.9309 8.57138C10.2735 8.57138 9.64306 8.83252 9.17822 9.29736C8.71338 9.7622 8.45223 10.3927 8.45223 11.05C8.45223 12.414 9.5669 13.514 10.9309 13.514ZM12.9696 28.0927V15.8167H8.9069V28.0927H12.9696Z" fill="#2076CD"/>
</svg>
